Coordinates
version=1
nRows=33
nColumns=30
inDegrees=yes

Units are S.I. units (second, meters, Newtons, ...)
Angles are in degrees.

endheader
time	floatyaw	floatroll	floatpitch	floatx	floaty	floatz	pro_sup_l	deviation_l	flexion_l	cmc_flexion_l	cmc_abduction_l	mp_flexion_l	ip_flexion_l	2mcp_flexion_l	2mcp_abduction_l	2pm_flexion_l	2md_flexion_l	3mcp_flexion_l	3mcp_abduction_l	3pm_flexion_l	3md_flexion_l	4mcp_flexion_l	4mcp_abduction_l	4pm_flexion_l	4md_flexion_l	5mcp_flexion_l	5mcp_abduction_l	5pm_flexion_l	5md_flexion_l
0.005000	-0.679314	-3.115271	87.889519	0.169820	-0.243106	0.188079	120.714537	21.789824	19.017572	2.805119	33.191533	-20.210253	-34.709675	47.417916	10.032280	49.966655	45.942464	41.899483	5.526432	61.615289	52.074997	48.449938	-5.307935	79.552784	52.622032	34.533815	-11.488320	78.157236	48.084052
0.015000	-0.679314	-3.115271	87.889519	0.169196	-0.242540	0.187809	120.578600	21.516065	18.729773	3.594005	33.591044	-20.418636	-36.761885	47.098434	10.093451	50.637517	46.667991	41.595918	5.549055	62.314180	52.823091	48.029973	-5.367629	80.289732	53.274691	34.075311	-11.544571	78.666916	48.691441
0.025000	-0.679314	-3.115271	87.889519	0.168570	-0.242025	0.187535	120.432403	21.225063	18.476354	4.299006	33.941164	-20.573632	-38.676145	46.766918	10.158808	51.333967	47.304053	41.307078	5.576062	62.968269	53.513544	47.641084	-5.428887	80.971263	53.869819	33.622855	-11.608544	79.127014	49.278378
0.035000	-0.679314	-3.115271	87.889519	0.167953	-0.241554	0.187267	120.290144	20.923963	18.242067	4.937518	34.250777	-20.677337	-40.492727	46.447168	10.231446	52.031098	47.879725	41.045391	5.601344	63.561778	54.179204	47.278642	-5.492138	81.613804	54.436214	33.181166	-11.675123	79.565158	49.862816
0.045000	-0.679314	-3.115271	87.889519	0.167356	-0.241122	0.187011	120.167168	20.623919	18.015287	5.516002	34.523327	-20.729633	-42.221687	46.153891	10.314050	52.702399	48.408781	40.816104	5.621312	64.084646	54.834253	46.937880	-5.554541	82.229193	54.989971	32.760861	-11.734528	79.993539	50.449735
0.055000	-0.679314	-3.115271	87.889519	0.166795	-0.240729	0.186764	120.071866	20.338600	17.794687	6.024613	34.752069	-20.731403	-43.819486	45.895662	10.404417	53.314989	48.877640	40.617962	5.635048	64.530257	55.462398	46.618421	-5.610639	82.812774	55.523982	32.379168	-11.775736	80.395890	51.023816
0.065000	-0.679314	-3.115271	87.889519	0.166288	-0.240374	0.186520	120.000890	20.081087	17.590174	6.442614	34.924273	-20.688755	-45.200171	45.678221	10.493597	53.832032	49.252126	40.446128	5.643588	64.894341	56.022312	46.326469	-5.654502	83.341451	56.010153	32.055227	-11.791268	80.732805	51.553694
0.075000	-0.679314	-3.115271	87.889519	0.165850	-0.240056	0.186269	119.940418	19.859978	17.417399	6.751116	35.031497	-20.614732	-46.275469	45.506102	10.568399	54.222813	49.497758	40.295884	5.648842	65.176162	56.467372	46.072882	-5.682409	83.783094	56.413651	31.802225	-11.780557	80.962604	52.005496
0.085000	-0.679314	-3.115271	87.889519	0.165491	-0.239778	0.186007	119.873205	19.676472	17.288850	6.945827	35.078739	-20.526785	-47.001075	45.382256	10.617267	54.474711	49.600979	40.165333	5.652726	65.380434	56.769412	45.867580	-5.694778	84.112217	56.711745	31.620803	-11.750001	81.065058	52.358357
0.095000	-0.679314	-3.115271	87.889519	0.165207	-0.239540	0.185741	119.787672	19.524170	17.206561	7.042728	35.085870	-20.441502	-47.402422	45.306505	10.636086	54.599393	49.579534	40.055844	5.656742	65.517583	56.934082	45.713390	-5.696331	84.323144	56.906728	31.497360	-11.709898	81.053736	52.613568
0.105000	-0.679314	-3.115271	87.889519	0.164982	-0.239344	0.185488	119.683835	19.392130	17.160513	7.073905	35.080287	-20.370111	-47.565752	45.273777	10.630320	54.629552	49.477406	39.970045	5.661857	65.602057	56.999871	45.603006	-5.694376	84.433793	57.025653	31.407897	-11.670180	80.970732	52.792750
0.115000	-0.679314	-3.115271	87.889519	0.164792	-0.239189	0.185266	119.572728	19.269910	17.133418	7.076515	35.085859	-20.317478	-47.601334	45.272933	10.612188	54.608869	49.347788	39.908310	5.668437	65.650779	57.021437	45.520725	-5.695975	84.479156	57.107611	31.325360	-11.637159	80.868788	52.926950
0.125000	-0.679314	-3.115271	87.889519	0.164616	-0.239066	0.185091	119.470142	19.152145	17.108839	7.081064	35.115074	-20.284354	-47.600978	45.287275	10.594748	54.581152	49.232367	39.865853	5.676234	65.683284	57.045818	45.447941	-5.705304	84.498931	57.186373	31.227681	-11.612602	80.791909	53.043250
0.135000	-0.679314	-3.115271	87.889519	0.164442	-0.238968	0.184965	119.388827	19.040310	17.077846	7.104228	35.168212	-20.270145	-47.612420	45.297929	10.586457	54.582555	49.146202	39.832851	5.684526	65.721769	57.093731	45.369941	-5.722382	84.525404	57.277861	31.104263	-11.594984	80.763474	53.155546
0.145000	-0.679314	-3.115271	87.889519	0.164270	-0.238887	0.184880	119.333648	18.940855	17.040587	7.148149	35.238554	-20.273409	-47.640723	45.290103	10.589039	54.636573	49.075594	39.798790	5.692463	65.787102	57.156066	45.281485	-5.743691	84.575741	57.377904	30.959282	-11.581725	80.784255	53.262896
0.155000	-0.679314	-3.115271	87.889519	0.164110	-0.238821	0.184824	119.301735	18.861104	17.002593	7.204795	35.319373	-20.289525	-47.670538	45.259926	10.599045	54.749777	48.990739	39.759454	5.699529	65.889613	57.207846	45.189246	-5.764257	84.649895	57.469497	30.810704	-11.570953	80.837415	53.354559
0.165000	-0.679314	-3.115271	87.889519	0.163976	-0.238768	0.184785	119.286291	18.805421	16.969033	7.262132	35.408241	-20.307806	-47.692026	45.217931	10.611252	54.908779	48.866539	39.722245	5.705889	66.019641	57.230924	45.109958	-5.780077	84.733248	57.534051	30.684714	-11.562050	80.896504	53.417502
0.175000	-0.679314	-3.115271	87.889519	0.163882	-0.238728	0.184757	119.280747	18.773435	16.941121	7.309206	35.506638	-20.311783	-47.713557	45.185917	10.621490	55.082525	48.698895	39.705209	5.712383	66.146579	57.229792	45.064337	-5.789729	84.802868	57.560456	30.606672	-11.555189	80.934329	53.441532
0.185000	-0.679314	-3.115271	87.889519	0.163832	-0.238701	0.184741	119.280501	18.760358	16.916662	7.339085	35.616345	-20.284846	-47.755453	45.187110	10.627712	55.233654	48.506057	39.728358	5.720072	66.231492	57.228780	45.068278	-5.794571	84.836485	57.548539	30.591222	-11.550661	80.931943	53.420569
0.195000	-0.679314	-3.115271	87.889519	0.163824	-0.238682	0.184736	119.281939	18.758373	16.893172	7.350018	35.735904	-20.219296	-47.832641	45.233773	10.629668	55.336376	48.314632	39.801156	5.729513	66.248547	57.252528	45.124449	-5.797646	84.822272	57.507321	30.635194	-11.548566	80.885905	53.352977
0.205000	-0.679314	-3.115271	87.889519	0.163848	-0.238667	0.184741	119.280764	18.758320	16.870277	7.345095	35.859087	-20.122971	-47.939937	45.318943	10.628100	55.390720	48.140461	39.913513	5.740235	66.202083	57.304681	45.217921	-5.801980	84.765535	57.450732	30.716586	-11.548659	80.809942	53.244355
0.215000	-0.679314	-3.115271	87.889519	0.163882	-0.238654	0.184748	119.271858	18.751638	16.849533	7.330094	35.974961	-20.018043	-48.049113	45.417419	10.624004	55.422288	47.978056	40.036305	5.750810	66.126976	57.361355	45.318504	-5.809131	84.688092	57.393343	30.800793	-11.549825	80.728078	53.111658
0.225000	-0.679314	-3.115271	87.889519	0.163902	-0.238642	0.184747	119.251091	18.732534	16.832554	7.310047	36.069013	-19.931496	-48.118503	45.496253	10.618043	55.465575	47.806368	40.132159	5.759546	66.070595	57.384749	45.389989	-5.818616	84.619222	57.347432	30.852128	-11.549362	80.661518	52.983131
0.235000	-0.679314	-3.115271	87.889519	0.163887	-0.238629	0.184731	119.217578	18.699708	16.819492	7.286500	36.126368	-19.882364	-48.110368	45.529883	10.610226	55.540630	47.607493	40.171659	5.765355	66.066841	57.347912	45.403502	-5.828354	84.581975	57.321794	30.846316	-11.543088	80.616740	52.890155
0.245000	-0.679314	-3.115271	87.889519	0.163825	-0.238611	0.184696	119.174644	18.656716	16.808835	7.257371	36.137714	-19.872667	-48.008876	45.512466	10.600040	55.637727	47.385907	40.147189	5.768267	66.117329	57.254879	45.349621	-5.835819	84.582020	57.321898	30.779146	-11.526910	80.581906	52.854002
0.255000	-0.679314	-3.115271	87.889519	0.163723	-0.238584	0.184648	119.128753	18.610510	16.798055	7.219381	36.105311	-19.886700	-47.830202	45.461086	10.587077	55.719536	47.174789	40.077348	5.769337	66.189801	57.143919	45.243160	-5.839305	84.605348	57.350311	30.667773	-11.499163	80.533404	52.876002
0.265000	-0.679314	-3.115271	87.889519	0.163601	-0.238546	0.184593	119.086893	18.568630	16.784496	7.171173	36.044313	-19.899043	-47.617903	45.407697	10.571752	55.739703	47.023817	39.998811	5.770087	66.234227	57.071516	45.117172	-5.838672	84.626436	57.406309	30.543517	-11.462116	80.448789	52.937916
0.275000	-0.679314	-3.115271	87.889519	0.163481	-0.238500	0.184542	119.053554	18.536143	16.766406	7.115025	35.977106	-19.887335	-47.423879	45.383644	10.555592	55.667177	46.974914	39.949013	5.771804	66.207921	57.085437	45.008283	-5.835246	84.622245	57.484769	30.438520	-11.421504	80.319504	53.011876
0.285000	-0.679314	-3.115271	87.889519	0.163383	-0.238452	0.184499	119.028779	18.513717	16.743916	7.056274	35.923742	-19.843068	-47.285000	45.405239	10.540775	55.502330	47.040762	39.948891	5.774997	66.096153	57.201754	44.940956	-5.830984	84.583806	57.575728	30.372477	-11.384206	80.156737	53.073208
0.295000	-0.679314	-3.115271	87.889519	0.163312	-0.238409	0.184464	119.008340	18.497746	16.719340	7.001236	35.894740	-19.774605	-47.209335	45.468403	10.529157	55.275952	47.199239	39.995434	5.779234	65.917312	57.398551	44.919270	-5.827456	84.518875	57.666075	30.346439	-11.355337	79.987061	53.109231
0.305000	-0.679314	-3.115271	87.889519	0.163263	-0.238376	0.184432	118.986005	18.482431	16.696275	6.955222	35.890384	-19.701550	-47.179209	45.554320	10.521317	55.033094	47.406073	40.067280	5.783403	65.711553	57.628358	44.929761	-5.825239	84.445322	57.743572	30.346380	-11.336364	79.840404	53.121341
0.315000	-0.679314	-3.115271	87.889519	0.163226	-0.238354	0.184398	118.956600	18.462671	16.677902	6.921639	35.905282	-19.644728	-47.166391	45.641020	10.516129	54.812691	47.616259	40.138075	5.786276	65.521947	57.840068	44.951700	-5.824015	84.380805	57.801593	30.352870	-11.325235	79.737297	53.121628
0.325000	-0.679314	-3.115271	87.889519	0.163192	-0.238343	0.184360	118.918255	18.436273	16.665576	6.901800	35.933489	-19.617410	-47.147987	45.713303	10.511071	54.634566	47.801011	40.188735	5.787119	65.379339	57.997702	44.967609	-5.823195	84.335456	57.841902	30.350454	-11.318157	79.681759	53.126776
